<?xml version="1.0" encoding="UTF-8" standalone="no"?>
<!-- Created with Inkscape (http://www.inkscape.org/) -->

<svg
   width="287.71991mm"
   height="273.97913mm"
   viewBox="0 0 287.71991 273.97913"
   version="1.1"
   id="svg1"
   xml:space="preserve"
   inkscape:version="1.4.2 (ebf0e940, 2025-05-08)"
   sodipodi:docname="sendas_de_gracia_logo.svg"
   xmlns:inkscape="http://www.inkscape.org/namespaces/inkscape"
   xmlns:sodipodi="http://sodipodi.sourceforge.net/DTD/sodipodi-0.dtd"
   xmlns="http://www.w3.org/2000/svg"
   xmlns:svg="http://www.w3.org/2000/svg"><sodipodi:namedview
     id="namedview1"
     pagecolor="#ffffff"
     bordercolor="#000000"
     borderopacity="0.25"
     inkscape:showpageshadow="2"
     inkscape:pageopacity="0.0"
     inkscape:pagecheckerboard="0"
     inkscape:deskcolor="#d1d1d1"
     inkscape:document-units="mm"
     inkscape:zoom="0.30675765"
     inkscape:cx="33458.008"
     inkscape:cy="29176.126"
     inkscape:window-width="1512"
     inkscape:window-height="949"
     inkscape:window-x="0"
     inkscape:window-y="33"
     inkscape:window-maximized="0"
     inkscape:current-layer="layer1"><inkscape:page
       x="0"
       y="2.2666172e-12"
       width="287.71991"
       height="273.97916"
       id="page2"
       margin="0"
       bleed="0" /></sodipodi:namedview><defs
     id="defs1" /><g
     inkscape:label="Capa 1"
     inkscape:groupmode="layer"
     id="layer1"
     transform="translate(-11760.487,-7400.5615)"><path
       id="path49-5-1"
       style="fill:#254117;fill-opacity:1;stroke-width:3.39538"
       d="m 11914.641,7400.7198 c 0.08,-2.6378 -1.316,27.7659 -1.789,85.831 -0.538,66.1814 -0.591,75.0904 9.603,96.8985 0.738,-0.1165 1.471,-0.237 2.195,-0.3618 2.5,-0.4313 4.321,-0.6942 6.103,-0.6423 1.921,0.056 3.767,0.6429 5.227,1.7069 2.436,1.7733 3.847,4.8899 3.088,8.0899 -0.576,2.429 -2.224,4.3717 -4.371,5.3924 a 3.4195075,3.4195075 0 0 1 -0.01,0.01 c -1.27,0.5961 -2.604,0.8729 -3.951,0.941 6.448,10.2073 14.556,20.2161 24.287,29.962 10.036,10.0518 15.722,14.5756 20.626,16.4119 1.481,0.5548 4.845,0.8802 7.472,0.7276 3.877,-0.2282 5.269,-0.7752 7.369,-2.8975 3.087,-3.1196 3.849,-6.5063 2.398,-10.6484 -1.577,-4.4943 -4.31,-7.1668 -21.45,-20.9703 -28.746,-23.1526 -39.354,-36.097 -45.07,-55.0008 -1.124,-3.7185 -6.976,-28.8626 -10.503,-128.0475 -0.518,-14.5761 -1.276,-25.6569 -1.22,-27.4004 z m -22.782,0.2099 v 0 c -1.214,33.9226 -1.611,60.5444 -2.468,78.6365 -1.069,39.7893 -5.806,71.9514 -13.267,87.8014 -7.687,16.3301 -18.815,27.9691 -47.154,49.3236 -10.89,8.206 -14.132,12.4732 -14.132,18.603 0,4.752 1.816,7.4815 6.289,9.4563 8.861,3.9111 18.984,-2.0676 36.151,-21.3512 7.733,-8.6872 14.081,-16.8628 19.206,-24.8305 -0.413,0 -0.8,-0.027 -1.196,-0.068 -2.491,-0.2599 -5.265,-1.4996 -6.742,-4.1584 0,0 0,0 0,0 -1.336,-2.3951 -1.372,-5.2482 -0.01,-7.6662 a 3.4195075,3.4195075 0 0 1 0,-0.016 c 1.088,-1.9089 2.877,-3.1283 4.695,-3.7362 1.266,-0.4243 2.667,-0.5557 4.144,-0.463 v 0 c 1.423,0.088 3.021,0.333 5.379,0.7343 v 0 c 0.714,0.1215 1.401,0.2355 2.067,0.3427 3.925,-8.4465 6.551,-16.877 8.085,-25.6729 2.269,-13.0102 4.725,-33.053 1.461,-92.4243 -1.153,-21.5104 -1.051,-43.1609 -2.515,-64.5087 z m -23.684,57.7716 -1.287,15.2725 c -2.333,27.6782 -6.227,47.2329 -11.652,58.5142 -4.079,8.4802 -12.477,18.8733 -19.541,24.1836 -11.352,8.5346 -28.802,17.6386 -59.243,30.9076 -11.833,5.1582 -15.966,9.4669 -15.966,16.6476 0,3.5009 3.489,8.2103 6.542,8.831 4.148,0.8414 9.443,-0.6121 17.261,-4.7393 43.262,-22.8357 69.408,-45.5224 77.867,-67.5653 4.584,-11.9471 5.367,-19.0049 5.7,-51.507 z m 69.248,0.924 c -0.641,0.396 -0.314,14.1035 0.963,40.4011 1.626,33.4765 6.572,47.2245 23.177,64.4111 5.111,5.2896 12.997,12.4079 17.525,15.8171 11.247,8.4654 30.958,20.7894 44.291,27.6908 7.546,3.9059 12.08,5.7248 14.272,5.7248 9.816,0 13.845,-9.3976 7.492,-17.4744 -2.865,-3.6422 -7.063,-5.9665 -26.052,-14.4291 -38.673,-17.2336 -54.821,-28.5365 -64.689,-45.2799 -7.196,-12.2101 -13.171,-37.1391 -15.346,-64.0225 -0.587,-7.2538 -1.324,-13.0329 -1.633,-12.839 z" /><path
       id="path48-7-8"
       style="fill:#c2a46b;stroke-width:0.413909"
       transform="translate(601.94855,114.73009)"
       d="m 11302.609,7436.1816 a 1.0330747,1.0330747 0 0 0 -0.01,0.01 c -0.822,-0.2002 -1.709,-0.1992 -2.573,0.055 a 1.0330747,1.0330747 0 0 0 -0.09,0.029 c -2.961,1.1728 -4.09,3.9283 -4.297,6.6347 -0.208,2.7065 0.335,5.5518 0.607,7.6133 1.103,8.6548 1.84,17.1983 2.078,22.6895 -0.233,-0.028 -0.407,-0.055 -0.683,-0.082 -6.473,-0.6328 -10.621,-1.1871 -17.227,-2.3106 -2.339,-0.3981 -3.883,-0.6296 -5.131,-0.707 -1.265,-0.08 -2.306,0.033 -3.24,0.3457 v 0 c -1.378,0.4604 -2.626,1.3353 -3.379,2.6563 a 1.0330747,1.0330747 0 0 0 0,0.01 c -0.923,1.6395 -0.904,3.6813 0.02,5.3321 0,8e-4 0,0 0,0 1.02,1.8412 2.952,2.7456 4.904,2.9492 1.543,0.1588 2.668,0.047 7.211,-0.7265 5.412,-0.9229 10.639,-1.6084 15.785,-2.0782 0.686,-0.063 1.306,-0.1275 1.826,-0.1855 0,3.6927 -0.176,11.767 -0.619,24.5488 -0.172,4.9859 -0.551,13.527 -0.742,16.7871 a 1.0330747,1.0330747 0 0 0 0,0.01 c -0.05,0.9506 -0.176,3.0592 -0.268,4.6757 -0.219,3.8678 -0.745,11.6501 -1.004,14.8106 -0.114,1.4254 -0.329,4.0614 -0.476,5.8575 -0.441,5.4032 -0.396,7.9838 0.541,10.3418 v 0 c 1.193,3.0038 3.75,4.6457 6.275,4.3222 2.525,-0.3234 4.752,-2.5677 5.477,-6.2851 0.342,-1.7642 0.317,-4.069 0.09,-6.8555 -1.402,-17.1358 -1.74,-23.087 -2.5,-44.0059 -0.119,-3.2843 -0.308,-8.4855 -0.422,-11.5566 -0.114,-3.0636 -0.26,-7.0957 -0.318,-8.9414 -0.05,-1.5075 -0.1,-2.7955 -0.131,-3.7422 0.428,0.046 0.726,0.1138 1.4,0.1719 1.175,0.1019 2.796,0.2615 3.494,0.3437 6.449,0.7565 9.335,1.1624 13.862,1.9571 1.465,0.2571 2.967,0.5013 3.746,0.5742 1.802,0.1686 3.466,0.01 4.916,-0.6699 1.505,-0.7157 2.671,-2.0898 3.074,-3.7891 0.517,-2.1803 -0.46,-4.362 -2.172,-5.6093 -1.053,-0.7674 -2.376,-1.2074 -3.891,-1.252 -1.473,-0.043 -3.171,0.1857 -5.627,0.6094 -6.191,1.0667 -13.486,2.0217 -18.599,2.4687 0.06,-1.6634 0.09,-3.1962 0.324,-5.9648 0.4,-4.813 0.965,-10.3853 1.549,-14.959 0.09,-0.7054 0.289,-2.2295 0.435,-3.3809 0.343,-2.6933 0.517,-5.2102 0.252,-6.9961 -0.262,-1.7866 -1,-3.3917 -2.234,-4.5059 -0.633,-0.5724 -1.398,-0.9836 -2.225,-1.1875 z m 0.407,42.0371 c 0.07,0.018 0.18,0.016 0.248,0.031 v 0 z" /></g></svg>
