<?xml version="1.0" encoding="UTF-8" standalone="no"?>
<!-- Created with Inkscape (http://www.inkscape.org/) -->

<svg
   width="179.03093mm"
   height="169.832mm"
   viewBox="0 0 179.03093 169.832"
   version="1.1"
   id="svg1"
   xml:space="preserve"
   xmlns="http://www.w3.org/2000/svg"
   xmlns:svg="http://www.w3.org/2000/svg"><defs
     id="defs1" /><g
     id="layer1"
     transform="translate(-8796.7237,-7673.2608)"><path
       id="path1-23-8-8-2-2-6-4-0-5"
       style="fill:#f7f3ea;fill-opacity:1;stroke-width:2.11274"
       d="m 8892.6456,7673.3592 c 0.052,-1.6414 -0.819,17.2772 -1.1131,53.4076 -0.3393,41.6675 -0.3687,46.8502 6.2028,60.7787 0.4201,-0.067 0.8364,-0.1365 1.2469,-0.2072 1.5427,-0.2657 2.6396,-0.4198 3.6592,-0.3902 1.0796,0.032 2.0762,0.3515 2.8836,0.94 1.3315,0.9702 2.1464,2.7386 1.7177,4.5439 -0.3269,1.3774 -1.2514,2.4511 -2.4159,3.0045 -0.7867,0.3737 -1.6247,0.5247 -2.4851,0.5369 4.0622,6.526 9.214,12.923 15.429,19.1477 6.245,6.2546 9.7825,9.0697 12.8339,10.2123 0.9222,0.3452 3.0151,0.5476 4.6503,0.4526 2.4118,-0.142 3.2774,-0.4824 4.5842,-1.803 1.9213,-1.9411 2.3957,-4.0485 1.4919,-6.6259 -0.9806,-2.7965 -2.6812,-4.4592 -13.3464,-13.0483 -17.8873,-14.4064 -24.4875,-22.4611 -28.0443,-34.2238 -0.6995,-2.3138 -4.3407,-17.9595 -6.5355,-79.6762 -0.3224,-9.0698 -0.7942,-15.9647 -0.7592,-17.0496 z m -14.1764,0.1312 c -0.7557,21.108 -1.0025,37.6733 -1.5363,48.9309 -0.665,24.7585 -3.6126,44.7707 -8.2553,54.6333 -4.7829,10.1612 -11.7069,17.4037 -29.3408,30.6912 -6.7761,5.1061 -8.7933,7.7613 -8.7933,11.5755 0,2.9569 1.1296,4.6551 3.9129,5.8839 v 0 c 5.5136,2.4337 11.8126,-1.2865 22.4947,-13.2855 4.978,-5.5917 9.0323,-10.8427 12.2773,-15.9623 -0.3662,0.012 -0.6787,0 -1.0118,-0.037 -1.3944,-0.1453 -2.8989,-0.8048 -3.7243,-2.2965 -0.7425,-1.342 -0.76,-2.9873 0,-4.3362 0,0 0.01,-0.01 0.011,-0.014 0.6106,-1.0704 1.5899,-1.7279 2.5973,-2.0645 0.6926,-0.2311 1.4571,-0.3099 2.3171,-0.2563 0.8372,0.052 1.8165,0.202 3.2748,0.4501 0.4043,0.069 0.7941,0.1338 1.1725,0.1958 2.5695,-5.4181 4.2754,-10.8176 5.2591,-16.4589 1.4117,-8.0955 2.9401,-20.5671 0.909,-57.5102 -0.7179,-13.3846 -0.6543,-26.8563 -1.5648,-40.1397 z m -14.7365,35.9472 -0.801,9.5033 c -1.4515,17.2225 -3.8746,29.39 -7.2507,36.4096 -2.538,5.2767 -7.7637,11.7439 -12.159,15.0482 -7.0637,5.3105 -17.9218,10.9753 -36.8634,19.2319 -7.363,3.2096 -9.9342,5.8905 -9.9342,10.3586 0,2.1784 2.1705,5.109 4.0705,5.4952 v 0 c 2.5808,0.5236 5.8754,-0.381 10.7404,-2.9491 26.9192,-14.2093 43.1884,-28.326 48.4518,-42.0419 2.8523,-7.434 3.3393,-11.8256 3.5471,-32.0497 z m 43.0888,0.5751 c -0.3992,0.2464 -0.1955,8.7757 0.599,25.1391 1.0119,20.8304 4.0897,29.385 14.4218,40.0792 3.1801,3.2914 8.0874,7.7204 10.9053,9.8418 6.9973,5.2675 19.2631,12.9361 27.559,17.2304 4.6955,2.4304 7.5167,3.5621 8.8811,3.5621 6.108,0 8.6145,-5.8475 4.6613,-10.8732 -1.7828,-2.2663 -4.3943,-3.7125 -16.2104,-8.9783 -24.0641,-10.7234 -34.1118,-17.7566 -40.2518,-28.175 -4.4777,-7.5976 -8.1958,-23.1095 -9.5493,-39.8374 -0.3649,-4.5136 -0.8236,-8.1093 -1.016,-7.9887 z" /><path
       id="path34-0-3-3-9-9-9"
       style="fill:#c2a46b;fill-opacity:1;stroke-width:0.25755"
       d="m 8886.2178,7767.4427 c -0.4089,-0.1003 -0.8471,-0.099 -1.2723,0.026 -3.178,1.2589 -2.2423,5.5587 -1.8951,8.1829 0.7258,5.6982 1.2507,11.5642 1.367,14.9559 -0.1034,-0.027 -0.1847,-0.039 -0.2945,-0.056 -0.2259,-0.035 -0.5346,-0.073 -0.9064,-0.1094 -4.0371,-0.3947 -6.6453,-0.7425 -10.7653,-1.4433 -1.4489,-0.2466 -2.3955,-0.387 -3.1251,-0.4322 -0.7296,-0.046 -1.2793,0.018 -1.7707,0.1827 -0.7385,0.2468 -1.3713,0.6976 -1.7497,1.3609 -0.457,0.8113 -0.4492,1.8656 0.011,2.6927 0.512,0.9252 1.4875,1.3964 2.5572,1.5079 0.9052,0.093 1.4926,0.035 4.3132,-0.4455 3.3833,-0.5769 6.6518,-1.0067 9.8716,-1.3007 0.4606,-0.042 0.8929,-0.087 1.2239,-0.1248 0.1655,-0.019 0.3042,-0.037 0.4144,-0.051 0.055,-0.011 0.1023,-0.015 0.1472,-0.023 0.015,0 0.059,-0.017 0.071,-0.018 0.011,2.1202 -0.1151,7.6976 -0.4038,16.0383 -0.1076,3.1096 -0.3432,8.4173 -0.4626,10.4613 -0.034,0.599 -0.1101,1.9093 -0.1662,2.9133 -0.1369,2.4162 -0.4652,7.2509 -0.6266,9.2319 -0.072,0.8877 -0.2052,2.5283 -0.2966,3.6461 -0.2726,3.3418 -0.2339,4.8201 0.2924,6.145 1.3198,3.3237 5.256,3.1484 6.0848,-1.1065 0.1914,-0.984 0.1859,-2.3846 0.046,-4.0915 -0.872,-10.6661 -1.0854,-14.3915 -1.5582,-27.4107 -0.074,-2.0436 -0.1918,-5.2791 -0.263,-7.1895 v 0 c -0.071,-1.9072 -0.1591,-4.416 -0.1955,-5.5681 -0.038,-1.1588 -0.082,-2.4366 -0.1012,-2.871 0,-0.026 0.012,-0.1667 0.011,-0.196 0,8e-4 0.011,0 0.013,0 0.3753,0.099 0.7479,0.1146 1.5625,0.1848 0.7385,0.064 1.7412,0.1629 2.1935,0.2161 4.0175,0.4712 5.836,0.7267 8.6623,1.2227 0.9046,0.1589 1.8581,0.3102 2.2796,0.3498 1.0476,0.098 1.9613,0 2.7255,-0.3587 0.7641,-0.3632 1.3583,-1.0637 1.5626,-1.9243 0.2572,-1.083 -0.2335,-2.1898 -1.1041,-2.8241 -0.5462,-0.3975 -1.2278,-0.6304 -2.061,-0.6549 -0.8338,-0.024 -1.8574,0.1083 -3.3732,0.3698 -3.9659,0.6833 -8.6941,1.3107 -11.9115,1.5813 -0.1819,0.015 -0.3041,0.031 -0.4542,0.063 0.044,-1.2519 0.07,-2.4147 0.2439,-4.5058 0.2493,-3.0038 0.602,-6.4773 0.9675,-9.3366 0.056,-0.4417 0.1785,-1.3899 0.2691,-2.1047 v 0 c 0.2101,-1.65 0.3037,-3.2053 0.1598,-4.1783 v 0 c -0.1463,-0.9952 -0.5529,-1.8495 -1.186,-2.4211 -0.3166,-0.2857 -0.6972,-0.4893 -1.1062,-0.5901 z" /></g></svg>
